<svg width="543" height="220" viewBox="0 0 543 220" fill="none" xmlns="http://www.w3.org/2000/svg">
<path d="M1 1L1.00001 219" stroke="black" stroke-opacity="0.2"/>
<path d="M1 219H543" stroke="black" stroke-opacity="0.2"/>
<path d="M182 20L182 220" stroke="#F00B0B" stroke-dasharray="4 4"/>
<path d="M182 116L3 116" stroke="#18A0FB" stroke-dasharray="4 4"/>
<path d="M363 29L2.99997 29" stroke="#18A0FB" stroke-dasharray="4 4"/>
<path d="M363.381 19L362.526 219.001" stroke="#F00B0B" stroke-dasharray="4 4"/>
<rect x="1" y="138" width="182" height="80" fill="url(#paint0_linear_3602_23295)"/>
<path d="M183 116.736L362 29V216H183V116.736Z" fill="url(#paint1_linear_3602_23295)"/>
<rect x="362" y="138" width="164" height="81" fill="url(#paint2_linear_3602_23295)"/>
<line x1="1" y1="137.5" x2="183" y2="137.5" stroke="#FA0E0E"/>
<line x1="362" y1="137.5" x2="526" y2="137.5" stroke="#FA0E0E"/>
<line x1="182.78" y1="116.551" x2="362.78" y2="28.5508" stroke="#11BF2D"/>
<line x1="264.5" y1="-2.29614e-08" x2="264.5" y2="219" stroke="#252525"/>
<defs>
<linearGradient id="paint0_linear_3602_23295" x1="92" y1="138" x2="92" y2="218" gradientUnits="userSpaceOnUse">
<stop stop-color="#F8B3B3"/>
<stop offset="1" stop-color="#FDDBDB" stop-opacity="0"/>
</linearGradient>
<linearGradient id="paint1_linear_3602_23295" x1="272.072" y1="73.1884" x2="273.029" y2="215.996" gradientUnits="userSpaceOnUse">
<stop stop-color="#96F3A4"/>
<stop offset="1" stop-color="#D9F5DD" stop-opacity="0"/>
</linearGradient>
<linearGradient id="paint2_linear_3602_23295" x1="444" y1="138" x2="444" y2="219" gradientUnits="userSpaceOnUse">
<stop stop-color="#F8B3B3"/>
<stop offset="1" stop-color="#FDDBDB" stop-opacity="0"/>
</linearGradient>
</defs>
</svg>
