<svg width="258" height="184" viewBox="0 0 258 184" fill="none" xmlns="http://www.w3.org/2000/svg">
<path d="M1.00001 0L1.00001 183" stroke="black" stroke-opacity="0.2"/>
<path d="M1 183H258" stroke="black" stroke-opacity="0.2"/>
<path d="M2.99998 32L175 32" stroke="#18A0FB" stroke-dasharray="4 4"/>
<path d="M2.99998 80L86 80" stroke="#18A0FB" stroke-dasharray="4 4"/>
<path d="M86 80L174 31.5V180H86V80Z" fill="url(#paint1_linear_3603_23296)"/>
<path d="M86.0003 80L174 31.4991" stroke="#11BF2D"/>
<path d="M86 0L86 184" stroke="#F00B0B" stroke-dasharray="4 4"/>
<path d="M174 0L174 183.003" stroke="#F00B0B" stroke-dasharray="4 4"/>
<rect x="1" y="140" width="85" height="80" fill="url(#paint0_linear_3603_23296)"/>
<rect x="174" y="140" width="84" height="81" fill="url(#paint2_linear_3603_23296)"/>
<path d="M174 140L258 140" stroke="#FA0E0E"/>
<path d="M1 140H86" stroke="#FA0E0E"/>
<path d="M50 0L50 183" stroke="#252525" class='lower' stroke-opacity="0" />
<path d="M129 0L129 183" stroke="#252525" class='middle' stroke-opacity="0"/>
<path d="M229 0L229 183" stroke="#252525" class='higher' stroke-opacity="0"/>
<defs>
<linearGradient id="paint0_linear_3603_23296" x1="43.5" y1="102" x2="43.5" y2="182" gradientUnits="userSpaceOnUse">
<stop stop-color="#F8B3B3"/>
<stop offset="1" stop-color="#FDDBDB" stop-opacity="0"/>
</linearGradient>
<linearGradient id="paint1_linear_3603_23296" x1="173.562" y1="37.1884" x2="174.536" y2="179.996" gradientUnits="userSpaceOnUse">
<stop stop-color="#96F3A4"/>
<stop offset="1" stop-color="#D9F5DD" stop-opacity="0"/>
</linearGradient>
<linearGradient id="paint2_linear_3603_23296" x1="216" y1="102" x2="216" y2="183" gradientUnits="userSpaceOnUse">
<stop stop-color="#F8B3B3"/>
<stop offset="1" stop-color="#FDDBDB" stop-opacity="0"/>
</linearGradient>
</defs>
</svg>
